<svg width="160" height="160" viewBox="0 0 160 160" fill="none" xmlns="http://www.w3.org/2000/svg">
<g clip-path="url(#clip0)">
<path d="M135.029 36.6839C124.344 33.0748 115.793 24.5959 112.156 14.0027C111.654 12.5419 110.286 11.5604 108.75 11.5604H51.2507C49.7151 11.5604 48.3463 12.5419 47.8442 14.003C44.2069 24.5959 35.6564 33.0748 24.9719 36.6836C23.5005 37.1804 22.512 38.5517 22.512 40.0957V67.353C22.512 85.9277 28.4043 103.595 39.5521 118.444C49.3989 131.56 63.3187 141.929 78.7476 147.639C79.5552 147.937 80.4448 147.937 81.2522 147.639C94.6033 142.697 106.665 134.431 116.133 123.732C116.992 122.762 116.902 121.279 115.931 120.42C114.961 119.561 113.478 119.652 112.62 120.622C103.751 130.644 92.4788 138.409 79.9997 143.098C65.5559 137.669 52.536 127.925 43.3042 115.627C32.7711 101.596 27.2038 84.9035 27.2038 67.353V40.8743C38.6728 36.755 47.8699 27.6314 52.0246 16.2521H107.975C112.13 27.6314 121.327 36.755 132.796 40.8743V67.353C132.796 83.358 128.11 98.8093 119.244 112.037C118.523 113.113 118.81 114.57 119.886 115.292C120.963 116.013 122.42 115.726 123.142 114.649C132.527 100.646 137.488 84.2917 137.488 67.3533V40.096C137.488 38.552 136.5 37.1807 135.029 36.6839ZM72.9619 94.5949C72.9619 98.4759 76.119 101.633 80 101.633C83.881 101.633 87.0381 98.4759 87.0381 94.5949V88.4442C87.9603 87.0585 88.4458 85.4528 88.4458 83.7759C88.4458 81.4621 87.4808 79.2236 85.7982 77.6346C84.0915 76.023 81.8572 75.2106 79.507 75.3442C75.3539 75.5819 71.949 78.8836 71.5871 83.0239C71.4191 84.9442 71.9062 86.8536 72.9619 88.4439V94.5949ZM76.2617 83.4324C76.4218 81.5975 77.9327 80.1345 79.7754 80.0288C79.8505 80.0244 79.9253 80.0222 79.9997 80.0222C80.9647 80.0222 81.8728 80.381 82.5766 81.046C83.3358 81.763 83.7537 82.7324 83.7537 83.7759C83.7537 84.5807 83.5025 85.3474 83.0277 85.994C82.5819 86.6005 82.3461 87.3287 82.3461 88.0992V94.5946C82.3461 95.8883 81.2938 96.9406 80 96.9406C78.7063 96.9406 77.654 95.8883 77.654 94.5946V88.0988C77.654 87.329 77.4181 86.6005 76.9718 85.993C76.5911 85.4747 76.1585 84.6095 76.2617 83.4324ZM144.22 26.9182C132.552 25.7311 123.209 16.477 122.006 4.91355C121.714 2.11238 119.375 0 116.563 0H43.4368C40.6256 0 38.2859 2.11238 37.9946 4.91355C36.791 16.4767 27.4487 25.7311 15.7807 26.9182C12.9736 27.2038 10.8566 29.5439 10.8566 32.3616V67.3533C10.8566 88.2534 17.4427 108.168 29.903 124.945C35.8979 133.017 43.0812 140.101 51.2532 145.998C59.5263 151.968 68.6314 156.59 78.3159 159.735C79.4019 160.088 80.5984 160.088 81.6845 159.735C91.3686 156.59 100.474 151.968 108.747 145.998C116.919 140.1 124.102 133.017 130.097 124.945C142.557 108.168 149.143 88.2534 149.143 67.3533V32.3616C149.143 29.5439 147.027 27.2034 144.22 26.9182ZM144.451 67.3533C144.451 87.2383 138.185 106.186 126.33 122.148C114.705 137.8 98.7659 149.255 80.2349 155.273C80.0835 155.322 79.9165 155.322 79.7651 155.273C61.2339 149.255 45.2943 137.8 33.6698 122.148C21.8151 106.186 15.5486 87.2383 15.5486 67.3533V32.3616C15.5486 31.9603 15.8524 31.6268 16.2556 31.5862C30.1235 30.1754 41.2287 19.1622 42.6614 5.39934C42.7033 4.99613 43.0367 4.69208 43.4368 4.69208H116.563C116.963 4.69208 117.297 4.99613 117.339 5.39934C118.771 19.1622 129.877 30.1754 143.745 31.5862C144.148 31.6271 144.451 31.9606 144.451 32.3616V67.3533ZM60.9771 39.6694C61.6671 38.5727 61.3374 37.1244 60.2407 36.4343C59.144 35.744 57.6954 36.0743 57.0057 37.1707C54.288 41.4902 52.8516 46.4766 52.8516 51.591V64.6397C49.2697 66.6498 46.8426 70.4832 46.8426 74.8747V102.089C46.8426 108.557 52.1047 113.819 58.5729 113.819H101.427C107.895 113.819 113.157 108.557 113.157 102.089V74.8747C113.157 70.4832 110.73 66.6501 107.148 64.6397V51.591C107.148 36.6214 94.9696 24.4426 80 24.4426C74.83 24.4426 69.7976 25.9081 65.4468 28.6808C64.3541 29.3771 64.0329 30.8273 64.7292 31.9199C65.4258 33.0126 66.8756 33.3341 67.9683 32.6375C71.5643 30.3459 75.7246 29.1347 79.9997 29.1347C92.3821 29.1347 102.456 39.2086 102.456 51.591V63.1923C102.117 63.1626 101.774 63.1445 101.427 63.1445H97.7639V51.591C97.7639 46.8454 95.9159 42.3836 92.5589 39.0266C89.2018 35.6733 84.7415 33.8265 79.9997 33.8265C70.2045 33.8265 62.2355 41.7955 62.2355 51.5907V63.1442H58.5725C58.2256 63.1442 57.8828 63.1623 57.5434 63.192V51.591C57.5437 47.3619 58.7311 43.2394 60.9771 39.6694ZM66.9279 51.591C66.9279 44.383 72.792 38.5189 80 38.5189C83.4897 38.5189 86.7723 39.8783 89.2425 42.3454C91.7121 44.8153 93.0722 48.0988 93.0722 51.591V63.1445H66.9279V51.591ZM58.5729 67.8366H101.427C105.308 67.8366 108.465 70.9937 108.465 74.8747V102.089C108.465 105.97 105.308 109.127 101.427 109.127H58.5729C54.6919 109.127 51.5347 105.97 51.5347 102.089V74.8747C51.5347 70.9937 54.6922 67.8366 58.5729 67.8366Z" fill="url(#paint0_linear)"/>
</g>
<defs>
<linearGradient id="paint0_linear" x1="10.8566" y1="0" x2="170.21" y2="24.8371" gradientUnits="userSpaceOnUse">
<stop stop-color="#0066FF"/>
<stop offset="1" stop-color="#2CE0C5"/>
</linearGradient>
<clipPath id="clip0">
<rect width="160" height="160" fill="white"/>
</clipPath>
</defs>
</svg>
