<svg width="160" height="160" viewBox="0 0 160 160" fill="none" xmlns="http://www.w3.org/2000/svg">
<g clip-path="url(#clip0)">
<path d="M159.632 137.645L153.021 127.289C151.688 125.201 149.774 123.633 147.562 122.736C149.463 120.652 150.625 117.881 150.625 114.844V21.0938C150.625 14.6319 145.368 9.375 138.907 9.375H21.0941C14.6319 9.375 9.375 14.6319 9.375 21.0938V114.844C9.375 117.881 10.5366 120.652 12.4388 122.736C10.2259 123.633 8.31188 125.201 6.97906 127.289L0.368125 137.645C0.127812 138.022 0 138.459 0 138.906C0 145.368 5.25688 150.625 11.7188 150.625H148.281C154.743 150.625 160 145.368 160 138.906C160 138.459 159.872 138.022 159.632 137.645ZM14.0625 21.0938C14.0625 17.2166 17.2166 14.0625 21.0938 14.0625H138.906C142.783 14.0625 145.938 17.2166 145.938 21.0938V114.844C145.938 118.721 142.783 121.875 138.906 121.875H21.0938C17.2166 121.875 14.0625 118.721 14.0625 114.844V21.0938ZM10.93 129.811C12.2281 127.777 14.4438 126.562 16.8566 126.562H143.143C145.556 126.562 147.772 127.777 149.07 129.811L153.38 136.562H6.62031L10.93 129.811ZM93.0919 141.25L88.4044 145.938H71.5959L66.9084 141.25H93.0919ZM5.09625 141.25H60.2791L64.9666 145.938H11.7188C8.66406 145.938 6.06438 143.977 5.09625 141.25ZM148.281 145.938H95.0331L99.7206 141.25H154.903C153.936 143.977 151.336 145.938 148.281 145.938Z" fill="url(#paint0_linear)"/>
<path d="M35.1562 89.0625C31.2791 89.0625 28.125 92.2166 28.125 96.0938C28.125 99.9709 31.2791 103.125 35.1562 103.125C39.0334 103.125 42.1875 99.9709 42.1875 96.0938C42.1875 94.9544 41.9134 93.8784 41.4303 92.9259L50.2062 83.7525C51.0878 84.1512 52.0647 84.3753 53.0934 84.3753C56.9706 84.3753 60.1247 81.2213 60.1247 77.3441C60.1247 76.2047 59.8506 75.1287 59.3675 74.1763L68.1434 65.0028C69.025 65.4016 70.0019 65.6256 71.0306 65.6256C72.0594 65.6256 73.0362 65.4016 73.9178 65.0028L82.6941 74.1763C82.2109 75.1291 81.9369 76.205 81.9369 77.3441C81.9369 81.2213 85.0909 84.3753 88.9681 84.3753C92.8453 84.3753 95.9994 81.2213 95.9994 77.3441C95.9994 76.2047 95.7253 75.1287 95.2422 74.1763L121.956 46.2528C122.837 46.6516 123.814 46.8756 124.843 46.8756C128.72 46.8756 131.874 43.7216 131.874 39.8444C131.874 35.9672 128.721 32.8125 124.844 32.8125C120.967 32.8125 117.812 35.9666 117.812 39.8438C117.812 40.9831 118.087 42.0591 118.57 43.0116L91.8562 70.935C90.9747 70.5363 89.9978 70.3122 88.9691 70.3122C87.9403 70.3122 86.9634 70.5363 86.0819 70.935L77.3056 61.7616C77.7887 60.8087 78.0628 59.7331 78.0628 58.5938C78.0628 54.7166 74.9087 51.5625 71.0316 51.5625C67.1544 51.5625 64.0003 54.7166 64.0003 58.5938C64.0003 59.7331 64.2744 60.8091 64.7575 61.7616L55.9816 70.935C55.1 70.5363 54.1231 70.3122 53.0944 70.3122C49.2172 70.3122 46.0631 73.4662 46.0631 77.3434C46.0631 78.4828 46.3372 79.5587 46.8203 80.5112L38.0444 89.6847C37.1619 89.2866 36.185 89.0625 35.1562 89.0625ZM35.1562 98.4375C33.8637 98.4375 32.8125 97.3863 32.8125 96.0938C32.8125 94.8013 33.8637 93.75 35.1562 93.75C36.4487 93.75 37.5 94.8013 37.5 96.0938C37.5 97.3863 36.4487 98.4375 35.1562 98.4375ZM124.844 37.5C126.136 37.5 127.187 38.5512 127.187 39.8438C127.187 41.1363 126.136 42.1875 124.844 42.1875C123.551 42.1875 122.5 41.1363 122.5 39.8438C122.5 38.5512 123.551 37.5 124.844 37.5ZM91.3125 77.3438C91.3125 78.6362 90.2612 79.6875 88.9687 79.6875C87.6762 79.6875 86.625 78.6362 86.625 77.3438C86.625 76.0513 87.6762 75 88.9687 75C90.2612 75 91.3125 76.0513 91.3125 77.3438ZM71.0312 56.25C72.3237 56.25 73.375 57.3013 73.375 58.5938C73.375 59.8862 72.3237 60.9375 71.0312 60.9375C69.7387 60.9375 68.6875 59.8862 68.6875 58.5938C68.6875 57.3013 69.7387 56.25 71.0312 56.25ZM53.0937 75C54.3862 75 55.4375 76.0513 55.4375 77.3438C55.4375 78.6362 54.3862 79.6875 53.0937 79.6875C51.8012 79.6875 50.75 78.6362 50.75 77.3438C50.75 76.0513 51.8012 75 53.0937 75Z" fill="url(#paint1_linear)"/>
<path d="M21.0938 117.188H138.906C140.201 117.188 141.25 116.138 141.25 114.844V21.0938C141.25 19.7994 140.201 18.75 138.906 18.75H21.0938C19.7994 18.75 18.75 19.7994 18.75 21.0938V91.4062C18.75 92.7006 19.7994 93.75 21.0938 93.75C22.3881 93.75 23.4375 92.7006 23.4375 91.4062V23.4375H136.562V112.5H23.4375V100.781C23.4375 99.4869 22.3881 98.4375 21.0938 98.4375C19.7994 98.4375 18.75 99.4869 18.75 100.781V114.844C18.75 116.138 19.7994 117.188 21.0938 117.188Z" fill="url(#paint2_linear)"/>
</g>
<defs>
<linearGradient id="paint0_linear" x1="0" y1="9.375" x2="181.289" y2="46.4073" gradientUnits="userSpaceOnUse">
<stop stop-color="#0066FF"/>
<stop offset="1" stop-color="#2CE0C5"/>
</linearGradient>
<linearGradient id="paint1_linear" x1="28.125" y1="32.8125" x2="142.486" y2="63.2429" gradientUnits="userSpaceOnUse">
<stop stop-color="#0066FF"/>
<stop offset="1" stop-color="#2CE0C5"/>
</linearGradient>
<linearGradient id="paint2_linear" x1="18.75" y1="18.75" x2="156.408" y2="49.6426" gradientUnits="userSpaceOnUse">
<stop stop-color="#0066FF"/>
<stop offset="1" stop-color="#2CE0C5"/>
</linearGradient>
<clipPath id="clip0">
<rect width="160" height="160" fill="white"/>
</clipPath>
</defs>
</svg>
